<?xml version="1.0" standalone="no"?>
<!DOCTYPE svg PUBLIC "-//W3C//DTD SVG 20010904//EN"
 "http://www.w3.org/TR/2001/REC-SVG-20010904/DTD/svg10.dtd">
<svg version="1.0" xmlns="http://www.w3.org/2000/svg"
 width="512.000000pt" height="512.000000pt" viewBox="0 0 512.000000 512.000000"
 preserveAspectRatio="xMidYMid meet">

<g transform="translate(0.000000,512.000000) scale(0.100000,-0.100000)"
fill="#000000" stroke="none">
<path d="M1471 3990 c-157 -33 -262 -91 -376 -205 -73 -72 -99 -107 -133 -175
-96 -194 -107 -394 -31 -590 36 -93 84 -167 161 -246 l59 -60 -77 -18 c-221
-52 -414 -210 -515 -421 -73 -152 -73 -148 -77 -652 l-3 -453 25 -25 25 -25
2031 0 2031 0 25 25 25 25 -3 453 c-4 433 -5 455 -26 525 -84 276 -300 485
-566 548 l-77 18 59 60 c77 79 125 153 161 246 76 196 65 396 -31 590 -55 111
-187 247 -293 302 -124 64 -203 83 -345 83 -142 0 -221 -19 -345 -83 -106 -55
-238 -191 -293 -302 -49 -99 -70 -175 -79 -282 -16 -200 69 -420 216 -563 l51
-50 -72 -17 c-143 -35 -311 -135 -397 -236 l-39 -46 -64 65 c-104 108 -234
182 -374 215 l-75 18 59 60 c77 79 125 153 161 246 76 196 65 396 -31 590 -34
68 -60 103 -133 175 -98 99 -175 146 -300 185 -79 25 -260 35 -334 20z m310
-182 c177 -65 293 -185 355 -368 26 -76 26 -244 0 -320 -63 -187 -189 -313
-376 -376 -83 -28 -244 -26 -332 4 -144 50 -264 154 -329 288 -161 331 31 716
396 795 70 15 213 3 286 -23z m1920 0 c177 -65 293 -185 355 -368 14 -40 19
-84 19 -160 0 -76 -5 -120 -19 -160 -63 -187 -189 -313 -376 -376 -83 -28
-244 -26 -332 4 -144 50 -264 154 -329 288 -161 331 31 716 396 795 70 15 213
3 286 -23z m-1631 -1263 c235 -54 410 -226 470 -461 18 -70 20 -112 20 -441
l0 -363 -160 0 -160 0 0 375 0 376 -25 24 c-32 33 -78 33 -110 0 l-25 -24 0
-376 0 -375 -480 0 -480 0 0 375 0 376 -25 24 c-15 16 -36 25 -55 25 -19 0
-40 -9 -55 -25 l-25 -24 0 -376 0 -375 -161 0 -160 0 4 393 c3 323 6 400 19
437 86 246 250 391 503 444 11 2 205 4 430 5 330 1 423 -2 475 -14z m1920 0
c235 -54 410 -226 470 -461 18 -70 20 -112 20 -441 l0 -363 -160 0 -160 0 0
375 0 376 -25 24 c-32 33 -78 33 -110 0 l-25 -24 0 -376 0 -375 -480 0 -480 0
0 375 0 376 -25 24 c-15 16 -36 25 -55 25 -19 0 -40 -9 -55 -25 l-25 -24 0
-376 0 -375 -80 0 -80 0 0 365 c0 385 -6 451 -50 568 l-19 50 29 42 c45 65
143 149 218 186 130 64 161 67 617 68 328 1 423 -2 475 -14z"/>
</g>
</svg>
